<svg xmlns="http://www.w3.org/2000/svg" xmlns:xlink="http://www.w3.org/1999/xlink" xml:space="preserve" version="1.1" style="shape-rendering:geometricPrecision;text-rendering:geometricPrecision;image-rendering:optimizeQuality;" viewBox="0 0 0.975 1.0274999999999999" x="0px" y="0px" fill-rule="evenodd" clip-rule="evenodd"><defs><style type="text/css">
   
    .fil0 {fill:black;fill-rule:nonzero}
   
  </style></defs><g><path class="fil0" d="M0.03 0l0.914 0c0.017,0 0.031,0.014 0.031,0.03l0 0.122 0 0.244c0,0.119 -0.037,0.225 -0.099,0.302 -0.062,0.077 -0.15,0.124 -0.252,0.124l0 0 -0.274 0 0 0c-0.102,0 -0.189,-0.047 -0.251,-0.124 -0.062,-0.077 -0.099,-0.183 -0.099,-0.302l0 0 0 -0.243 0 -0.001 0 -0.122c0,-0.016 0.014,-0.03 0.03,-0.03zm0.884 0.183l-0.244 0c0.006,0.045 0.016,0.087 0.033,0.128 0.018,0.044 0.042,0.087 0.076,0.131 0.039,-0.031 0.084,-0.055 0.135,-0.07l0 -0.189zm-0.305 0l-0.243 0c-0.007,0.053 -0.018,0.102 -0.038,0.151 -0.02,0.05 -0.048,0.099 -0.088,0.15 0.006,0.007 0.012,0.014 0.018,0.021 0.056,0.069 0.094,0.158 0.117,0.257l0.225 0c0.023,-0.099 0.061,-0.188 0.117,-0.257 0.006,-0.007 0.011,-0.014 0.017,-0.021 -0.039,-0.051 -0.067,-0.1 -0.087,-0.15 -0.02,-0.049 -0.032,-0.098 -0.038,-0.151zm-0.304 0l-0.244 0 0 0.189c0.051,0.015 0.096,0.039 0.135,0.07 0.034,-0.044 0.058,-0.087 0.076,-0.131 0.016,-0.041 0.027,-0.083 0.033,-0.128zm-0.244 -0.061l0.853 0 0 -0.061 -0.853 0 0 0.061zm0.851 0.314c-0.059,0.021 -0.108,0.058 -0.148,0.107 -0.046,0.058 -0.08,0.132 -0.101,0.216 0.066,-0.01 0.123,-0.046 0.166,-0.099 0.046,-0.057 0.076,-0.135 0.083,-0.224zm-0.6 0.323c-0.021,-0.084 -0.055,-0.158 -0.102,-0.216 -0.039,-0.049 -0.088,-0.086 -0.147,-0.107 0.007,0.089 0.036,0.167 0.083,0.224 0.043,0.053 0.1,0.089 0.166,0.099z"/></g><text x="0" y="15.822" fill="#000000" font-size="5px" font-weight="bold" font-family="'Helvetica Neue', Helvetica, Arial-Unicode, Arial, Sans-serif">Created by Nociconist</text><text x="0" y="20.822" fill="#000000" font-size="5px" font-weight="bold" font-family="'Helvetica Neue', Helvetica, Arial-Unicode, Arial, Sans-serif">from the Noun Project</text></svg>